<svg xmlns="http://www.w3.org/2000/svg" width="29.003" height="31.242" viewBox="0 0 29.003 31.242"><defs><style>.a{fill:#48727d;}</style></defs><g transform="translate(0 0.137)"><path class="a" d="M134.385,165.705a.647.647,0,0,1-.685-.685V135.285a.685.685,0,1,1,1.37,0V165.02A.647.647,0,0,1,134.385,165.705Z" transform="translate(-133.7 -134.6)"/></g><g transform="translate(0 0)"><path class="a" d="M156.035,161.494c-2.741,0-5.481-1.233-8.222-2.6-2.6-1.233-5.07-2.467-7.674-2.467a7.292,7.292,0,0,0-5.344,2.329c-.137.137-.548.274-.685.137a.754.754,0,0,1-.411-.685V137.652a1.039,1.039,0,0,1,.274-.548,8.926,8.926,0,0,1,6.3-2.6c2.741,0,5.481,1.233,8.222,2.6,2.6,1.233,5.07,2.466,7.673,2.466a7.292,7.292,0,0,0,5.344-2.329.646.646,0,0,1,.822-.137.61.61,0,0,1,.274.822c-1.233,4.385-2.6,8.359-3.974,12.332a52.834,52.834,0,0,0,3.974,7.536c.137.274.137.685-.137.822C160.283,160.535,158.228,161.494,156.035,161.494Zm-15.9-6.44c2.741,0,5.481,1.233,8.222,2.6,2.6,1.233,5.07,2.466,7.674,2.466a7.707,7.707,0,0,0,4.933-1.918,54.013,54.013,0,0,1-3.837-7.536.417.417,0,0,1,0-.548c1.233-3.289,2.329-6.851,3.426-10.414a8.752,8.752,0,0,1-4.522,1.37c-2.741,0-5.481-1.233-8.222-2.6-2.6-1.233-5.07-2.467-7.674-2.467a7.269,7.269,0,0,0-5.07,2.055v18.773A8.765,8.765,0,0,1,140.14,155.054Z" transform="translate(-133.7 -134.5)"/></g></svg>