<svg xmlns="http://www.w3.org/2000/svg" width="30.575" height="26.994" viewBox="0 0 30.575 26.994"><defs><style>.a{fill:#48727d;}</style></defs><g transform="translate(4.942 0)"><path class="a" d="M446.407,24.158c-2.878,0-5.207-2.741-5.207-6.029s2.329-6.029,5.207-6.029,5.207,2.741,5.207,6.029S449.285,24.158,446.407,24.158Zm0-10.551c-2.192,0-3.837,2.055-3.837,4.659,0,2.466,1.781,4.659,3.837,4.659,2.192,0,3.837-2.055,3.837-4.659S448.462,13.607,446.407,13.607Z" transform="translate(-441.2 -12.1)"/></g><g transform="translate(0 14.628)"><path class="a" d="M456.375,35.142H438.7a.647.647,0,0,1-.685-.685L437.6,28.7a5.241,5.241,0,0,1,3.152-4.8,20.1,20.1,0,0,1,13.292,0,5.032,5.032,0,0,1,3.152,4.8l-.411,5.755C457.06,34.868,456.786,35.142,456.375,35.142Zm-16.991-1.37H455.69l.411-5.07a3.955,3.955,0,0,0-2.329-3.426,19.425,19.425,0,0,0-12.469,0,4.048,4.048,0,0,0-2.329,3.426Z" transform="translate(-437.594 -22.775)"/></g><g transform="translate(0 14.628)"><path class="a" d="M456.375,35.142H438.7a.647.647,0,0,1-.685-.685L437.6,28.7a5.241,5.241,0,0,1,3.152-4.8,20.1,20.1,0,0,1,13.292,0,5.032,5.032,0,0,1,3.152,4.8l-.411,5.755C457.06,34.868,456.786,35.142,456.375,35.142Zm-16.991-1.37H455.69l.411-5.07a3.955,3.955,0,0,0-2.329-3.426,19.425,19.425,0,0,0-12.469,0,4.048,4.048,0,0,0-2.329,3.426Z" transform="translate(-437.594 -22.775)"/></g><g transform="translate(21.522 16.169)"><path class="a" d="M461.248,34.725h-6.988a.685.685,0,1,1,0-1.37h6.44l.274-4.248a3.7,3.7,0,0,0-1.918-2.878,20.748,20.748,0,0,0-5.07-.959.685.685,0,1,1,0-1.37,18.419,18.419,0,0,1,5.481.959,4.457,4.457,0,0,1,2.878,4.248l-.274,4.933A.869.869,0,0,1,461.248,34.725Z" transform="translate(-453.3 -23.9)"/></g><g transform="translate(19.878 3.837)"><path class="a" d="M456.348,24.492c-2.329,0-4.248-2.192-4.248-4.8s1.918-4.8,4.248-4.8,4.248,2.192,4.248,4.8A4.5,4.5,0,0,1,456.348,24.492Zm0-8.222c-1.644,0-2.878,1.507-2.878,3.426s1.233,3.426,2.878,3.426,2.878-1.507,2.878-3.426A3.228,3.228,0,0,0,456.348,16.27Z" transform="translate(-452.1 -14.9)"/></g></svg>