<svg xmlns="http://www.w3.org/2000/svg" width="26.857" height="31.927" viewBox="0 0 26.857 31.927"><defs><style>.a{fill:#48727d;}</style></defs><g transform="translate(0 0)"><path class="a" d="M25.592,166.227a.5.5,0,0,1-.411-.137c-.548-.411-12.881-11.1-12.881-18.362a13.429,13.429,0,1,1,26.857,0c0,7.262-12.332,17.951-12.881,18.362A2.788,2.788,0,0,0,25.592,166.227Zm0-30.557a12.076,12.076,0,0,0-12.058,12.058c0,5.892,9.729,14.936,12.058,16.854,2.192-1.918,12.058-10.962,12.058-16.854A12.165,12.165,0,0,0,25.592,135.67Z" transform="translate(-12.3 -134.3)"/></g><g transform="translate(7.125 7.262)"><path class="a" d="M23.666,151.932a6.166,6.166,0,1,1,6.166-6.166A6.141,6.141,0,0,1,23.666,151.932Zm0-10.962a4.8,4.8,0,1,0,4.8,4.8A4.855,4.855,0,0,0,23.666,140.97Z" transform="translate(-17.5 -139.6)"/></g></svg>