<svg xmlns="http://www.w3.org/2000/svg" width="29.498" height="29.598" viewBox="0 0 29.498 29.598"><defs><style>.a{fill:#48727d;}</style></defs><g transform="translate(0)"><path class="a" d="M450.4,474.661c-.137,0-.411-.137-.548-.137-.137-.137-.274-.548-.137-.685a8.706,8.706,0,0,0-.959-8.359c-.548,0-.959-.137-1.37-.137a.589.589,0,0,1-.548-.548,4.224,4.224,0,0,1-.137-1.37,9.084,9.084,0,0,0-8.359-.959.6.6,0,0,1-.685-.137c-.137-.137-.274-.548-.137-.685a12.509,12.509,0,0,1,2.055-3.152,9.96,9.96,0,0,1,8.359-2.741,16.281,16.281,0,0,1,18.225-10.277.589.589,0,0,1,.548.548,16.707,16.707,0,0,1-4.8,14.662,16.161,16.161,0,0,1-5.481,3.7,9.821,9.821,0,0,1-2.741,8.359,8.4,8.4,0,0,1-3.152,2.055C450.67,474.661,450.533,474.661,450.4,474.661ZM448.2,463.973c.274,0,.685.137,1.1.137a1.039,1.039,0,0,1,.548.274,9.912,9.912,0,0,1,1.781,8.222c.411-.274.822-.685,1.233-.959a8.472,8.472,0,0,0,2.329-7.673.977.977,0,0,1,.411-.822,16.7,16.7,0,0,0,5.618-3.7,15.3,15.3,0,0,0,4.522-12.881,15.025,15.025,0,0,0-12.88,4.522,15.451,15.451,0,0,0-3.7,5.618.665.665,0,0,1-.822.411,8.364,8.364,0,0,0-7.674,2.329,7.533,7.533,0,0,0-.959,1.233,9.912,9.912,0,0,1,8.222,1.781.712.712,0,0,1,.274.548C448.066,463.288,448.2,463.562,448.2,463.973Z" transform="translate(-437.459 -445.2)"/></g><g transform="translate(18.213 4.556)"><path class="a" d="M454.244,455.205a3.94,3.94,0,0,1-2.466-.959,3.311,3.311,0,0,1,0-4.8,3.571,3.571,0,0,1,4.8,0,3.3,3.3,0,0,1,.959,2.466,3.939,3.939,0,0,1-.959,2.466A3.721,3.721,0,0,1,454.244,455.205Zm0-5.481a2.874,2.874,0,0,0-1.507.548,2.035,2.035,0,1,0,2.878,2.878,2.061,2.061,0,0,0,.548-1.507,2.874,2.874,0,0,0-.548-1.507A4.021,4.021,0,0,0,454.244,449.724Z" transform="translate(-450.75 -448.525)"/></g><g transform="translate(4.075 16.649)"><path class="a" d="M442.443,466.188a4.661,4.661,0,0,1-1.37-.137.589.589,0,0,1-.548-.548,9.276,9.276,0,0,1,2.74-7.948.678.678,0,0,1,.959.959,8.241,8.241,0,0,0-2.466,6.3,7.776,7.776,0,0,0,6.3-2.466.678.678,0,0,1,.959.959A9.622,9.622,0,0,1,442.443,466.188Z" transform="translate(-440.432 -457.35)"/></g></svg>